<svg viewBox="222 35.014 95 157.986" width="256" height="256" xmlns="http://www.w3.org/2000/svg">
  <g>
    <path style="fill:#fde3b7; stroke:none;" d="M 222.745 67.153 C 230.387 63.126 238.773 67.366 240.791 57.414 C 244.847 59.204 247.303 63.413 251.423 64.851 C 259.43 67.644 281.403 67.154 289.355 64.228 C 293.042 62.871 296.823 59.79 300.007 57.607 C 302.053 65.577 307.902 67.735 316.42 67.735 C 309.869 55.883 311.661 59.178 306.203 41.954 C 299.077 19.466 283.768 58.827 271.067 58.846 C 259.525 58.863 252.649 43.004 244.895 37.824 C 241.416 35.499 240.027 36.35 237.469 39.562 C 230.908 47.8 228.492 58.222 222.745 67.153 Z"></path>
    <rect style="fill: rgb(252, 180, 216);" x="222" y="78" width="15" height="100"></rect>
    <rect style="fill: rgb(252, 180, 216);" x="302" y="78" width="15" height="100"></rect>
    <path style="fill: rgb(204, 181, 248);" d="M 222 178 H 317 V 187 A 6 6 0 0 1 311 193 H 228 A 6 6 0 0 1 222 187 V 178 Z" data-bx-shape="rect 222 178 95 15 0 0 6 6 1@26a2a77d"></path>
    <path style="fill: rgb(204, 181, 248);" d="M 228 64 H 311 A 6 6 0 0 1 317 70 V 79 H 222 V 70 A 6 6 0 0 1 228 64 Z" data-bx-shape="rect 222 64 95 15 6 6 0 0 1@e7f4776e"></path>
    <ellipse style="fill: rgb(204, 181, 248);" cx="145.079" cy="116.353" rx="19" ry="7" transform="matrix(0.500038, 0.866004, -0.866004, 0.500038, 297.717182, -55.319932)"></ellipse>
    <ellipse style="fill: rgb(252, 180, 216);" cx="143.692" cy="117.33" rx="19" ry="7" transform="matrix(-0.499962, 0.866047, -0.866047, -0.499962, 442.953883, 62.71636)"></ellipse>
  </g>
</svg>